<?xml version="1.0" encoding="UTF-8" standalone="no"?>
<!-- Generator: Adobe Illustrator 17.0.0, SVG Export Plug-In . SVG Version: 6.00 Build 0)  -->
<!DOCTYPE svg  PUBLIC '-//W3C//DTD SVG 1.1//EN'  'http://www.w3.org/Graphics/SVG/1.1/DTD/svg11.dtd'>
<svg id="Capa_1" xmlns="http://www.w3.org/2000/svg" xml:space="preserve" height="52px" viewBox="0 0 184 52" width="184px" version="1.1" y="0px" x="0px" xmlns:xlink="http://www.w3.org/1999/xlink" enable-background="new 0 0 184 52">
		<path d="m25.825 7.96v34.714h-10.158v-38.879l-10.32 5.643-5.347-1.478v-7.851h41.526v7.851h-15.701z" fill="#161921"/>
		<polygon points="12.692 48.03 5.518 51.891 5.518 13.31 12.7 9.337" fill="#9BCA3D"/>
		<polygon points="22.849 48.03 12.692 48.03 5.518 51.891 15.532 51.891" fill="#9BCA3D"/>
		<g fill="#9BCA3D">
			<path d="m49.046 24.071v-2.142h3.94v-16.377h-3.94v-2.127h10.737v2.127h-3.927v16.377h3.927v2.142h-10.737z"/>
			<path d="m65.608 24.071v-20.646h2.641l6.953 11.536 7.025-11.536h2.541v20.646h-2.712v-16.006l-5.783 9.466h-2.127l-5.796-9.409v15.948h-2.742z"/>
			<path d="m90.994 24.071v-20.646h8.252c3.827 0 5.739 2.165 5.739 6.496 0 2.361-0.497 4.05-1.492 5.068-0.995 1.019-2.425 1.528-4.29 1.528h-5.325v7.553h-2.881zm2.885-9.738h5.383c1.684 0 2.613-0.98 2.784-2.941 0.038-0.362 0.057-0.79 0.057-1.285 0-1.665-0.227-2.831-0.679-3.498-0.452-0.666-1.149-1-2.092-1h-5.454v8.724z"/>
			<path d="m107.67 24.071l7.695-20.646h2.527l7.711 20.646h-2.927l-1.399-4.026h-9.209l-1.414 4.026h-2.98zm5.08-6.068h7.867l-3.912-11.294-3.96 11.294z"/>
			<path d="m132.25 23.45c-1.214-0.623-2.026-1.461-2.434-2.513-0.409-1.051-0.615-2.32-0.615-3.805v-6.482c0-3.008 0.781-5.059 2.342-6.154 1.323-0.923 3.248-1.385 5.775-1.385s4.362 0.35 5.504 1.049c1.143 0.7 1.856 1.797 2.141 3.291 0.133 0.666 0.2 1.461 0.2 2.384l-2.727 0.243c0-1.39-0.12-2.33-0.357-2.82-0.238-0.49-0.474-0.84-0.707-1.049-0.233-0.21-0.617-0.393-1.149-0.55-0.533-0.157-1.366-0.235-2.498-0.235-1.133 0-2.024 0.076-2.67 0.229-0.648 0.142-1.199 0.39-1.656 0.742-0.876 0.676-1.314 1.918-1.314 3.726v7.453c0 1.79 0.442 2.986 1.327 3.591 0.886 0.605 2.297 0.907 4.234 0.907s3.172-0.229 3.705-0.686c0.533-0.457 0.862-1.123 0.985-1.999 0.066-0.476 0.1-1.047 0.1-1.713h2.727c0 2.075-0.3 3.531-0.9 4.369-1.105 1.561-3.203 2.342-6.297 2.342-2.58 0-4.49-0.312-5.7-0.935z"/>
			<path d="m154.54 24.071v-18.29h-5.954v-2.356h14.792v2.356h-5.968v18.29h-2.87z"/>
			<path d="m170.45 23.443c-1.247-0.628-2.094-1.471-2.541-2.527-0.447-1.057-0.671-2.317-0.671-3.783v-6.496c0-2.96 0.837-5.012 2.513-6.154 1.352-0.914 3.35-1.371 5.997-1.371 4.682 0 7.362 1.742 8.038 5.225 0.14 0.733 0.21 1.561 0.21 2.484v6.111c0 2.875-0.824 4.892-2.47 6.054-1.324 0.933-3.189 1.399-5.597 1.399-2.41 0-4.23-0.314-5.48-0.942zm5.29-1.371c1.88 0 3.248-0.302 4.105-0.907 0.857-0.604 1.286-1.801 1.286-3.591v-7.467c0-1.789-0.431-3.017-1.292-3.684-0.862-0.666-2.225-0.999-4.09-0.999-2.894 0-4.65 0.799-5.269 2.399-0.238 0.609-0.357 1.371-0.357 2.284v7.467c0 1.78 0.466 2.975 1.399 3.584 0.93 0.609 2.34 0.914 4.22 0.914z"/>
		</g>
	<g fill="#161921">
		<path d="m54.507 48.37v-11.05h-3.597v-1.424h8.937v1.424h-3.606v11.05h-1.734z"/>
		<path d="m62.452 48.37v-12.473h7.789v1.294h-6.055v4.106h5.349v1.294h-5.349v4.486h6.159v1.294h-7.893z"/>
		<path d="m74.809 47.995c-0.733-0.376-1.223-0.883-1.47-1.518s-0.371-1.402-0.371-2.299v-3.917c0-1.817 0.472-3.056 1.415-3.718 0.799-0.558 1.962-0.837 3.489-0.837s2.635 0.212 3.326 0.634c0.69 0.423 1.121 1.086 1.294 1.988 0.08 0.403 0.121 0.883 0.121 1.441l-1.648 0.147c0-0.84-0.072-1.408-0.215-1.704-0.144-0.296-0.287-0.508-0.427-0.634-0.141-0.126-0.372-0.237-0.694-0.332-0.323-0.095-0.826-0.142-1.51-0.142s-1.222 0.046-1.613 0.138c-0.391 0.086-0.724 0.236-1.001 0.448-0.529 0.408-0.794 1.159-0.794 2.252v4.503c0 1.081 0.267 1.804 0.802 2.17 0.535 0.365 1.388 0.547 2.558 0.547 1.171 0 1.917-0.138 2.239-0.414s0.52-0.679 0.595-1.208c0.041-0.287 0.06-0.633 0.06-1.035h1.648c0 1.254-0.182 2.134-0.544 2.64-0.667 0.943-1.935 1.414-3.804 1.414-1.571 0.001-2.723-0.187-3.456-0.564z"/>
		<path d="m85.838 48.37v-12.473h1.32l7.143 9.972v-9.972h1.527v12.473h-1.544l-6.918-9.523v9.523h-1.528z"/>
		<path d="m101.25 47.991c-0.754-0.379-1.265-0.888-1.536-1.527-0.27-0.638-0.406-1.4-0.406-2.286v-3.925c0-1.789 0.506-3.028 1.518-3.718 0.817-0.552 2.025-0.828 3.623-0.828 2.829 0 4.448 1.052 4.856 3.157 0.087 0.443 0.129 0.943 0.129 1.501v3.692c0 1.737-0.498 2.956-1.493 3.658-0.799 0.564-1.926 0.845-3.381 0.845s-2.56-0.19-3.32-0.569zm3.2-0.828c1.136 0 1.962-0.182 2.481-0.547 0.517-0.365 0.776-1.088 0.776-2.17v-4.512c0-1.081-0.261-1.823-0.781-2.225s-1.344-0.604-2.471-0.604c-1.748 0-2.809 0.483-3.183 1.449-0.144 0.368-0.216 0.828-0.216 1.38v4.512c0 1.076 0.281 1.797 0.845 2.165 0.56 0.368 1.41 0.552 2.55 0.552z"/>
		<path d="m112.92 48.37v-12.473h1.734v11.137h5.598v1.337h-7.33z"/>
		<path d="m124.47 47.991c-0.754-0.379-1.265-0.888-1.536-1.527s-0.406-1.4-0.406-2.286v-3.925c0-1.789 0.506-3.028 1.518-3.718 0.817-0.552 2.025-0.828 3.623-0.828 2.829 0 4.448 1.052 4.856 3.157 0.087 0.443 0.129 0.943 0.129 1.501v3.692c0 1.737-0.498 2.956-1.493 3.658-0.799 0.564-1.926 0.845-3.381 0.845-1.46 0-2.56-0.19-3.31-0.569zm3.19-0.828c1.136 0 1.962-0.182 2.481-0.547 0.517-0.365 0.776-1.088 0.776-2.17v-4.512c0-1.081-0.261-1.823-0.781-2.225s-1.344-0.604-2.471-0.604c-1.748 0-2.809 0.483-3.183 1.449-0.144 0.368-0.216 0.828-0.216 1.38v4.512c0 1.076 0.281 1.797 0.845 2.165 0.56 0.368 1.41 0.552 2.54 0.552zm-0.53-12.862l1.035-2.942h1.941l-2.062 2.942h-0.91z"/>
		<path d="m141.06 48.56c-2.323 0-3.844-0.575-4.564-1.725-0.419-0.673-0.629-1.558-0.629-2.657v-3.917c0-1.777 0.517-3.016 1.553-3.718 0.822-0.558 1.978-0.837 3.468-0.837 1.489 0 2.58 0.168 3.273 0.505 0.693 0.336 1.148 0.785 1.367 1.345 0.219 0.561 0.328 1.244 0.328 2.049l-1.587 0.129c0-0.811-0.079-1.353-0.237-1.626-0.159-0.273-0.31-0.467-0.457-0.583-0.147-0.115-0.394-0.214-0.742-0.298-0.348-0.083-0.874-0.125-1.578-0.125-0.705 0-1.258 0.046-1.661 0.138-0.403 0.086-0.759 0.236-1.07 0.448-0.61 0.42-0.914 1.17-0.914 2.252v4.503c0 1.081 0.29 1.804 0.871 2.17 0.581 0.365 1.436 0.547 2.566 0.547s1.946-0.179 2.45-0.539c0.503-0.359 0.755-1.085 0.755-2.178v-1.147h-2.958v-1.266h4.701v6.34h-0.949l-0.216-2.122c-0.109 0.719-0.47 1.284-1.082 1.695-0.62 0.412-1.52 0.617-2.69 0.617z"/>
		<path d="m149.32 48.37v-1.294h2.382v-9.894h-2.382v-1.286h6.487v1.286h-2.372v9.894h2.372v1.294h-6.49z"/>
		<path d="m160.86 47.995c-0.733-0.376-1.223-0.883-1.47-1.518s-0.371-1.402-0.371-2.299v-3.917c0-1.817 0.472-3.056 1.415-3.718 0.799-0.558 1.962-0.837 3.489-0.837s2.635 0.212 3.326 0.634c0.69 0.423 1.121 1.086 1.294 1.988 0.08 0.403 0.121 0.883 0.121 1.441l-1.648 0.147c0-0.84-0.072-1.408-0.215-1.704-0.144-0.296-0.287-0.508-0.427-0.634-0.141-0.126-0.372-0.237-0.694-0.332-0.323-0.095-0.826-0.142-1.51-0.142-0.685 0-1.222 0.046-1.613 0.138-0.391 0.086-0.724 0.236-1.001 0.448-0.529 0.408-0.794 1.159-0.794 2.252v4.503c0 1.081 0.267 1.804 0.802 2.17 0.535 0.365 1.388 0.547 2.558 0.547 1.171 0 1.917-0.138 2.239-0.414s0.52-0.679 0.595-1.208c0.041-0.287 0.06-0.633 0.06-1.035h1.648c0 1.254-0.182 2.134-0.544 2.64-0.667 0.943-1.935 1.414-3.804 1.414-1.59 0.001-2.74-0.187-3.47-0.564z"/>
		<path d="m173.55 47.991c-0.754-0.379-1.265-0.888-1.536-1.527-0.27-0.638-0.406-1.4-0.406-2.286v-3.925c0-1.789 0.506-3.028 1.518-3.718 0.817-0.552 2.025-0.828 3.623-0.828 2.829 0 4.448 1.052 4.856 3.157 0.087 0.443 0.129 0.943 0.129 1.501v3.692c0 1.737-0.498 2.956-1.493 3.658-0.799 0.564-1.926 0.845-3.381 0.845-1.45 0-2.56-0.19-3.31-0.569zm3.2-0.828c1.136 0 1.962-0.182 2.481-0.547 0.517-0.365 0.776-1.088 0.776-2.17v-4.512c0-1.081-0.261-1.823-0.781-2.225s-1.344-0.604-2.471-0.604c-1.748 0-2.809 0.483-3.183 1.449-0.144 0.368-0.216 0.828-0.216 1.38v4.512c0 1.076 0.281 1.797 0.845 2.165 0.56 0.368 1.41 0.552 2.55 0.552z"/>
	</g>
</svg>
