<?xml version="1.0" encoding="utf-8"?>
<!-- Generator: Adobe Illustrator 18.0.0, SVG Export Plug-In . SVG Version: 6.00 Build 0)  -->
<!DOCTYPE svg PUBLIC "-//W3C//DTD SVG 1.1//EN" "http://www.w3.org/Graphics/SVG/1.1/DTD/svg11.dtd">
<svg version="1.1" id="Capa_1" xmlns="http://www.w3.org/2000/svg" xmlns:xlink="http://www.w3.org/1999/xlink" x="0px" y="0px"
	 viewBox="0 0 200 200" enable-background="new 0 0 200 200" xml:space="preserve">
<g>
	<path fill="#97ACBF" d="M199.3,25.1L196,35.5l-2.3-3.1l-15.5,10.8l-18.3,44.9l-41.8-4l-47.7,56.3l-23-4.3L5.5,166.6H3.1
		c-1.3,0-2.3-1-2.3-2.3l0-0.4c0-0.7,0.3-1,0.9-1.4L46,130.1l22.2,4.2l47.6-56l40.6,3.8l17.3-42.5l16.7-11.7l-2.1-2.8H199.3z"/>
	<path opacity="0.6" fill="#D8D6D6" enable-background="new    " d="M76.6,119l-3.3-4.4l-2.4-3.1l-0.9-1.3c0,0-28-8.7-38.8,18.6
		c0,0,2.4-1.4,6.4-1c0,0-8.1,9.2-7.2,19.2c9.4,3.7,20.4-1.7,20.4-1.7c-0.7,3.9-2.7,5.9-2.7,5.9C77.3,148.4,76.6,119,76.6,119z"/>
	<g>
		<path fill="#A8C84C" d="M143.7,56.9c0,0,14.3-9,14.4-8.2c0.1,0.8-11.6,11.9-11.6,11.9L143.7,56.9z"/>
		<polyline fill="#A8C84C" points="84.8,124.3 65.6,99.6 68,97.7 88.3,123.7 85.8,125.6 84.8,124.3 		"/>
		
			<rect x="64.2" y="112" transform="matrix(-0.6139 -0.7894 0.7894 -0.6139 30.4305 241.9916)" fill="#C86A5D" width="20.4" height="3.1"/>
		<path fill="#A8C84C" d="M81.2,74.6c-7.4,6.2-13.5,13-17.8,19.8l-17.1,8l16.4-25.8c0.8-1.3,2.7-2.3,4.2-2.2L81.2,74.6z"/>
		<path fill="#A8C84C" d="M114.1,117.1l-3.3,14c-0.4,1.4-1.8,3-3.2,3.5l-29,9.5l12-14.6l0.1,0l0,0
			C98.2,126.9,106.3,122.7,114.1,117.1z"/>
		<path fill="#E5E8E8" d="M148.4,69.5c-1.9,13.4-14.7,32.4-31.6,45.5c-0.9,0.7-1.8,1.4-2.7,2c-7.8,5.7-15.9,9.8-23.5,12.4l0,0
			c0,0,0,0-0.1,0l-13.7-17.6L63.4,94.5c0,0,0,0,0-0.1c4.3-6.7,10.3-13.6,17.8-19.8c0.8-0.7,1.7-1.4,2.6-2.1
			c16.9-13.2,38.6-20.6,52.1-19.2c4.6,0.5,8.1,2,10.3,4.6c0,0,0.1,0.1,0.1,0.1C148.4,60.9,149.1,64.9,148.4,69.5z"/>
		<circle fill="#97ACBF" cx="119.3" cy="78.8" r="16.4"/>
		<circle fill="#DFF2FF" cx="119.3" cy="78.8" r="13.8"/>
		<path fill="#A8C84C" d="M148.4,69.5l-12.5-16.1c4.6,0.5,8.3,2,10.4,4.7C148.4,60.9,149.1,64.9,148.4,69.5z"/>
		<g>
			<path fill="#F3D36B" d="M74.3,116.2l-1.2-1.5l-0.8-1.1l-0.3-0.4c0,0-9.7-3-13.4,6.4c0,0,0.8-0.5,2.2-0.3c0,0-2.8,3.2-2.5,6.7
				c3.3,1.3,7.1-0.6,7.1-0.6c-0.2,1.4-0.9,2-0.9,2C74.6,126.4,74.3,116.2,74.3,116.2z"/>
			<path fill="#F8E8B9" d="M73.9,115.7l-0.8-1l-0.8-1c-5.9,0.6-9.5,8.8-9.5,8.8S71.7,121.2,73.9,115.7z"/>
		</g>
	</g>
</g>
<g>
	<g>
		<path fill="#9BCA3D" d="M130.4,77.5c-0.1-0.1-0.2-0.2-0.2-0.3c-3.8-4.5-10.2-5.3-14.3-1.9c-4.1,3.5-4.4,9.9-0.6,14.4
			c0.1,0.1,0.2,0.2,0.2,0.3L130.4,77.5z"/>
		<g>
			<circle fill="#F8F8F8" cx="120.8" cy="79.1" r="3.8"/>
			<circle fill="#161921" cx="120.8" cy="79.1" r="2.7"/>
			<circle fill="#90AFC2" cx="121.4" cy="78.4" r="1.4"/>
		</g>
		<path fill="#82A025" d="M113.5,78.5c0,0,3.6-0.8,5.6-4.9C119.1,73.6,115.2,74.7,113.5,78.5z"/>
		<g>
			<polygon fill="#DEDFE0" points="109.4,77.6 114.1,80.2 114.3,78.6 			"/>
			<polygon fill="#DEDFE0" points="118.3,68.8 120.8,73.6 119.2,73.7 			"/>
			<g>
				<circle fill="#C86A5D" cx="109.4" cy="77.5" r="1"/>
				<circle fill="#C86A5D" cx="118.3" cy="68.9" r="1"/>
			</g>
		</g>
	</g>
	
		<rect x="118.1" y="84.9" transform="matrix(0.869 -0.4949 0.4949 0.869 -26.3057 72.557)" fill="#82A025" width="11.5" height="2.1"/>
</g>
</svg>
